<svg width="28" height="24" viewBox="0 0 28 24" fill="none" xmlns="http://www.w3.org/2000/svg">
<path d="M21.066 2.66667C23.3327 4.66667 24.666 7.46667 24.666 10.6667C24.666 16.5333 19.866 21.3333 13.9993 21.3333C8.13268 21.3333 3.33268 16.5333 3.33268 10.6667C3.33268 7.46667 4.79935 4.66667 6.93268 2.66667H21.066ZM21.9993 0H5.99935L5.19935 0.666667C2.26602 3.2 0.666016 6.8 0.666016 10.6667C0.666016 18 6.66602 24 13.9993 24C21.3327 24 27.3327 18 27.3327 10.6667C27.3327 6.8 25.7327 3.2 22.7993 0.666667L21.9993 0ZM15.3327 6C15.3327 7.06667 16.266 8 17.3327 8C18.3993 8 19.3327 7.06667 19.3327 6C19.3327 4.93333 18.3993 4 17.3327 4C16.266 4 15.3327 4.93333 15.3327 6ZM8.66602 6C8.66602 7.06667 9.59935 8 10.666 8C11.7327 8 12.666 7.06667 12.666 6C12.666 4.93333 11.7327 4 10.666 4C9.59935 4 8.66602 4.93333 8.66602 6ZM7.33268 13.3333C8.79935 13.3333 9.99935 12.1333 9.99935 10.6667C9.99935 9.2 8.79935 8 7.33268 8C5.86602 8 4.66602 9.2 4.66602 10.6667C4.66602 12.1333 5.86602 13.3333 7.33268 13.3333ZM13.3327 16C13.3327 14.5333 12.1327 13.3333 10.666 13.3333C9.19935 13.3333 7.99935 14.5333 7.99935 16C7.99935 17.4667 9.19935 18.6667 10.666 18.6667C12.1327 18.6667 13.3327 17.4667 13.3327 16ZM13.9993 13.3333C15.466 13.3333 16.666 12.1333 16.666 10.6667C16.666 9.2 15.466 8 13.9993 8C12.5327 8 11.3327 9.2 11.3327 10.6667C11.3327 12.1333 12.5327 13.3333 13.9993 13.3333ZM19.9993 16C19.9993 14.5333 18.7993 13.3333 17.3327 13.3333C15.866 13.3333 14.666 14.5333 14.666 16C14.666 17.4667 15.866 18.6667 17.3327 18.6667C18.7993 18.6667 19.9993 17.4667 19.9993 16ZM23.3327 10.6667C23.3327 9.2 22.1327 8 20.666 8C19.1993 8 17.9993 9.2 17.9993 10.6667C17.9993 12.1333 19.1993 13.3333 20.666 13.3333C22.1327 13.3333 23.3327 12.1333 23.3327 10.6667Z" fill="#999E9E"/>
</svg>
