<svg width="28" height="30" viewBox="0 0 28 30" fill="none" xmlns="http://www.w3.org/2000/svg">
<path d="M7.99935 24.333C7.99935 25.3997 7.06602 26.333 5.99935 26.333C4.93268 26.333 3.99935 25.3997 3.99935 24.333C3.99935 23.2663 4.93268 22.333 5.99935 22.333C7.06602 22.333 7.99935 23.2663 7.99935 24.333ZM21.9993 22.333C20.9327 22.333 19.9993 23.2663 19.9993 24.333C19.9993 25.3997 20.9327 26.333 21.9993 26.333C23.066 26.333 23.9993 25.3997 23.9993 24.333C23.9993 23.2663 23.066 22.333 21.9993 22.333ZM21.9993 18.9997H21.5993C24.266 16.8663 25.9993 13.3997 25.9993 9.66634C25.9993 5.93301 24.266 2.46634 21.5993 0.333008H6.39935C3.73268 2.46634 1.99935 5.93301 1.99935 9.66634C1.99935 13.3997 3.73268 16.8663 6.39935 18.9997H5.99935C3.06602 18.9997 0.666016 21.3997 0.666016 24.333C0.666016 27.2663 3.06602 29.6663 5.99935 29.6663H21.9993C24.9327 29.6663 27.3327 27.2663 27.3327 24.333C27.3327 21.3997 24.9327 18.9997 21.9993 18.9997ZM4.66602 9.66634C4.66602 7.13301 5.73268 4.73301 7.46601 2.99967H20.5327C22.266 4.73301 23.3327 7.13301 23.3327 9.66634C23.3327 14.8663 19.1993 18.9997 13.9993 18.9997C8.79935 18.9997 4.66602 14.8663 4.66602 9.66634ZM21.9993 26.9997H5.99935C4.53268 26.9997 3.33268 25.7997 3.33268 24.333C3.33268 22.8663 4.53268 21.6663 5.99935 21.6663H21.9993C23.466 21.6663 24.666 22.8663 24.666 24.333C24.666 25.7997 23.466 26.9997 21.9993 26.9997ZM15.1993 6.06634C15.1993 6.99967 15.9993 7.79967 16.9327 7.79967C17.866 7.79967 18.666 6.99967 18.666 6.06634C18.666 5.13301 17.866 4.33301 16.7993 4.33301C15.866 4.33301 15.1993 5.13301 15.1993 6.06634ZM9.46602 6.06634C9.46602 6.99967 10.266 7.79967 11.1993 7.79967C12.1327 7.79967 12.9327 6.99967 12.9327 6.06634C12.9327 5.13301 12.1327 4.33301 11.1993 4.33301C10.1327 4.33301 9.46602 5.13301 9.46602 6.06634ZM8.26602 12.333C9.59935 12.333 10.5327 11.2663 10.5327 10.0663C10.5327 8.86634 9.46601 7.79967 8.26602 7.79967C7.06602 7.79967 5.99935 8.73301 5.99935 10.0663C5.99935 11.2663 7.06602 12.333 8.26602 12.333ZM13.466 14.5997C13.466 13.3997 12.3993 12.333 11.1993 12.333C9.86601 12.333 8.93268 13.3997 8.93268 14.5997C8.93268 15.933 9.99935 16.8663 11.1993 16.8663C12.3993 16.8663 13.466 15.933 13.466 14.5997ZM13.9993 12.333C15.3327 12.333 16.266 11.2663 16.266 10.0663C16.266 8.86634 15.1993 7.79967 13.9993 7.79967C12.7993 7.79967 11.7327 8.86634 11.7327 10.0663C11.7327 11.2663 12.7993 12.333 13.9993 12.333ZM19.1993 14.5997C19.1993 13.3997 18.1327 12.333 16.9327 12.333C15.5993 12.333 14.666 13.3997 14.666 14.5997C14.666 15.933 15.7327 16.8663 16.9327 16.8663C18.1327 16.8663 19.1993 15.933 19.1993 14.5997ZM21.9993 10.0663C21.9993 8.86634 20.9327 7.79967 19.7327 7.79967C18.3993 7.79967 17.466 8.86634 17.466 10.0663C17.466 11.3997 18.5327 12.333 19.7327 12.333C20.9327 12.333 21.9993 11.2663 21.9993 10.0663Z" fill="#999E9E"/>
</svg>
